<?xml version="1.0" encoding="utf-8"?>
<!-- Generator: Adobe Illustrator 19.0.0, SVG Export Plug-In . SVG Version: 6.00 Build 0)  -->
<svg version="1.1" id="Camada_1" xmlns="http://www.w3.org/2000/svg" xmlns:xlink="http://www.w3.org/1999/xlink" x="0px" y="0px"
	 viewBox="532.4 371.7 140.9 40.5" style="enable-background:new 532.4 371.7 140.9 40.5;" xml:space="preserve">
<style type="text/css">
	.st0{fill:#216BAC;}
	.st1{fill:#57AEE3;}
	.st2{fill:#3D9841;}
	.st3{fill:#A22A3E;}
	.st4{fill:#C12A3F;}
	.st5{fill:#8DB44D;}
	.st6{fill:#AA83B3;}
	.st7{fill:#903287;}
	.st8{fill:#DBE07F;}
	.st9{fill:#FFFFFF;}
</style>
<path class="st0" d="M640.3,411.9c2.4,0.7,25.9,0.4,29.5-10.2c-2.4-0.3-9.4,1.9-11.7,2.3c-1.2,0.2-2.6,0.4-3.8,0.9
	c-1,0.4-2,1.2-2.9,1.7c-1.1,0.7-2,0.9-3.2,1.3c-1.3,0.4-2.6,1.3-4,1.7c-1,0.3-2.2,0.5-3.1,1.1L640.3,411.9L640.3,411.9z"/>
<path class="st1" d="M627.3,401.5c1.1,6.2,12.8,11.2,14.7,10.6c0.6-0.2,12.5-5.3,13.4-5.7c0.9-0.4,1.9-0.7,2.4-1.7
	c-3.8-0.1-17.7-2.2-21-2.2c-3.2,0-6.5-1.4-9.7-1.4c0.3-0.1,0.5,1.4,0.7,1.5L627.3,401.5L627.3,401.5z"/>
<path class="st2" d="M637.4,384.5c0.1,0.5-0.1,1-0.1,1.5c0,0.9,0.4,1.6,0.7,2.4c0.3,1-1,1.7-0.8,2.7c0.5,2.7,0.6,5.8,1.9,8.2
	c0.5,1,0.3,2.2,0.9,3.1c0.6,1.1,3.6,1.6,4.8,1.3c1.6-0.3,1-0.8-0.5-3.6c-0.6-1-2.7-7.8-3.4-10.1c-0.2-0.8-1.2-8-3.5-6.1L637.4,384.5
	L637.4,384.5z"/>
<path class="st3" d="M644.8,403c1.1,0,3.1,0,4.1-0.1c1.8-0.1,8.2-1.1,9.5-2.2c6.6-6,0-19.6-0.1-21.4c2.2,0,5.1-0.7,7.2,0
	c0,0.7,0.4,1.2,0.6,1.8c0.3,1.1,0.1,2.3,0.2,3.4c0.1,1.5,0.2,3.1,0.1,4.6c-0.2,2.1-0.1,5.6-1.6,7.4c-0.9,1.1-1.8,2-2.3,3.4
	c-0.3,0.9-0.4,1.5-0.4,2.5c0,1.7-0.1,1.6,1.5,1.8c0.5,0,2.5-0.1,2.6,0.1c0.6,0.7-0.2,0.8-0.7,1c-1.7,0.7-3.9,0.4-5.7,0.4
	c-3.2,0-14.4-1.4-15.5-1.6c-0.6-0.1,0.5-0.1,0-0.4L644.8,403L644.8,403z"/>
<path class="st4" d="M670.4,379c-1.4,0-2.8,0-4.2,0.1c-1.8,0.1-1.1-0.7-0.9,0.8c1.9,15.3-6.8,23.4-6.5,24.6c0.6,2.1,7.6,0.6,7.6,0.6
	c1.7,0.3,3.5-2.3,4.3-3.7c1.4-2.5,2.3-5.6,2.5-8.5C673.9,386.3,671.1,379.2,670.4,379L670.4,379L670.4,379z"/>
<path class="st5" d="M637.7,375.1c-0.4,1.9-0.7,3.9-0.4,5.9c0.2,1.1-0.3,2,0.1,3.1c0.4,1.1,0.1,2.6,1.4,2.2c1-0.3,3.7-4.1,11.4-6.1
	c2.5-0.6,6.7,0,9.2-0.6c-0.4-1.4-1.7-1.5-2.9-2.5c-2.4-2-5.7-2.3-8.8-2.4c-2.3,0-4.7-0.2-7,0c-1,0.1-2,0.4-3,0.5V375.1L637.7,375.1z
	"/>
<path class="st6" d="M655.3,371.9c3.6,0,8.6-0.3,11.5,2.2c1.6,1.4,3.1,3,3.6,5c-1.2,0.5-4.4,0.9-5.7,0.3c-0.6-0.3-0.8-1-1.3-1.5
	c-0.4-0.4-0.8-0.5-1.3-0.9c-0.6-0.4-0.8-0.9-1.4-1.3c-0.9-0.7-2.1-0.9-2.9-1.5c-0.9-0.7-1.8-1.1-2.7-1.8L655.3,371.9L655.3,371.9z"
	/>
<path class="st7" d="M632.5,375.5c3.5,0,19.7,0.1,25.2,3.5c2.1,1.3,5.3,0.9,7.7,0.6c-0.1-5.2-2.7-7.2-3.6-7.4
	c-2.1-0.6-11.8-0.5-14.1-0.5c-5.9,0-14.7,1.5-18.6,4.7L632.5,375.5L632.5,375.5z"/>
<path class="st8" d="M638.6,375.5c-2.7,0-6.8-0.5-9.2,0.6c-4.8,2.2-4.2,21.6-3,23.7c0.4,0.6,0.8,1.5,1.2,2c0.7,0.8,1.5,0.7,2.6,0.9
	c2.8,0.4,5.8,0.6,8.6,0.5c0.7,0,1.4,0.1,1.7-0.6s0-2.4-0.2-3.1c-0.3-1-0.6-1.6-0.8-2.7s-0.6-2.1-0.8-3.1c-0.5-2.2-0.4-4.5-0.5-6.8
	c-0.2-3.9-0.2-8,0.3-11.9v0.5H638.6z"/>
<path class="st9" d="M544,410c-0.6,0.2-1.2,0.3-1.9,0.4s-1.3,0.2-1.8,0.2c-1.9,0-3.3-0.5-4.3-1.6s-1.5-2.8-1.5-5.1v-10.3h-2.1v-2.7
	h2.1v-4.3l3.1-1.2v5.5h6.4v2.7h-6.4v8.8c0,1,0,1.8,0.1,2.4c0,0.6,0.2,1.1,0.4,1.6s0.6,0.8,1,1s1.1,0.3,1.9,0.3c0.5,0,1-0.1,1.6-0.2
	c0.5-0.2,0.9-0.3,1.2-0.4h0.2V410L544,410z"/>
<path class="st9" d="M562.8,400.8h-13.6c0,1.2,0.2,2.2,0.5,3.1s0.8,1.6,1.4,2.2c0.6,0.6,1.3,1,2,1.2c0.8,0.3,1.7,0.4,2.6,0.4
	c1.3,0,2.5-0.3,3.8-0.8s2.2-1,2.7-1.5h0.2v3.5c-1,0.5-2.1,0.8-3.2,1.2c-1.1,0.3-2.2,0.5-3.4,0.5c-3.1,0-5.4-0.9-7.2-2.6
	c-1.7-1.7-2.6-4.2-2.6-7.4c0-3.2,0.8-5.7,2.5-7.5c1.6-1.9,3.8-2.8,6.5-2.8c2.5,0,4.4,0.8,5.8,2.3c1.3,1.5,2,3.7,2,6.5V400.8
	L562.8,400.8L562.8,400.8z M559.8,398.3c0-1.7-0.4-3-1.2-4c-0.8-0.9-2-1.4-3.7-1.4s-3,0.5-4,1.5s-1.5,2.3-1.7,3.8h10.6V398.3z"/>
<path class="st9" d="M578.7,394.3h-0.2c-0.5-0.1-0.9-0.2-1.3-0.3c-0.4-0.1-0.9-0.1-1.5-0.1c-1,0-1.9,0.2-2.8,0.7
	c-0.9,0.4-1.7,1-2.6,1.7V410h-3.1v-19.4h3.1v2.9c1.2-1,2.3-1.8,3.3-2.2c0.9-0.4,1.9-0.6,2.9-0.6c0.5,0,0.9,0,1.2,0
	c0.2,0,0.6,0.1,1.1,0.2v3.4H578.7z"/>
<path class="st9" d="M592.8,394.3h-0.2c-0.5-0.1-0.9-0.2-1.3-0.3c-0.4-0.1-0.9-0.1-1.5-0.1c-1,0-1.9,0.2-2.8,0.7
	c-0.9,0.4-1.7,1-2.6,1.7V410h-3.1v-19.4h3.1v2.9c1.2-1,2.3-1.8,3.3-2.2c0.9-0.4,1.9-0.6,2.9-0.6c0.5,0,0.9,0,1.2,0
	c0.2,0,0.6,0.1,1.1,0.2v3.4H592.8z"/>
<path class="st9" d="M609.1,406.7l-3.1,1.5c-0.3,0.2-0.7,0.3-1.2,0.7c-0.5,0.4-0.9,0.6-1.4,0.8c-0.5,0.3-1.1,0.5-1.8,0.7
	s-1.4,0.3-2.3,0.3c-1.7,0-3.1-0.6-4.2-1.7c-1.1-1.2-1.7-2.6-1.7-4.4c0-1.5,0.3-2.6,0.9-3.6c0.6-0.9,1.4-1.6,2.6-2.1
	c1.1-0.5,2.5-0.9,4-1.1c1.6-0.2,3.2-0.3,5-0.4v-0.5c0-0.7-0.1-1.4-0.4-1.9c-0.2-0.5-0.6-0.9-1.1-1.2c-0.4-0.3-1-0.4-1.6-0.5
	s-1.3-0.1-1.9-0.1c-0.8,0-1.7,0.1-2.7,0.3c-1,0.2-2,0.6-3.1,1h-0.2v-3.3c0.6-0.2,1.5-0.4,2.6-0.6s2.3-0.3,3.4-0.3
	c1.3,0,2.4,0.1,3.4,0.3c1,0.2,1.8,0.6,2.5,1.2c0.7,0.5,1.2,1.2,1.6,2.1c0.4,0.8,0.5,1.9,0.5,3.1L609.1,406.7L609.1,406.7
	L609.1,406.7z M606,405.4V400c-0.9,0.1-2,0.1-3.3,0.3c-1.3,0.1-2.3,0.3-3,0.5c-0.9,0.3-1.6,0.7-2.1,1.2c-0.5,0.6-0.8,1.3-0.8,2.3
	c0,1.1,0.3,1.9,0.9,2.5c0.6,0.6,1.6,0.8,2.9,0.8c1.1,0,2.1-0.2,3-0.7C604.4,406.5,605.2,406,606,405.4L606,405.4z"/>
</svg>
